<?xml version="1.0" encoding="utf-8"?>
<!-- Generator: Adobe Illustrator 15.1.0, SVG Export Plug-In . SVG Version: 6.00 Build 0)  -->
<!DOCTYPE svg PUBLIC "-//W3C//DTD SVG 1.1//EN" "http://www.w3.org/Graphics/SVG/1.1/DTD/svg11.dtd">
<svg version="1.1" id="Layer_1" xmlns="http://www.w3.org/2000/svg" xmlns:xlink="http://www.w3.org/1999/xlink" x="0px" y="0px"
	 width="200px" height="200px" viewBox="0 0 200 200" enable-background="new 0 0 200 200" xml:space="preserve">
<g>
	<path d="M108.62,148.145c-0.506,4.084,1.172,6.316,4.674,6.316c3.145,0,6.114-1.865,6.114-1.865
		c-0.674,5.23-2.364,10.406-3.536,15.637c0,0-8.836,4.105-19.806,4.105c-10.16,0-15.366-6.273-13.998-17.84l2.139-17.67
		l6.279-51.153c0.964-7.854,0.262-13.282,0.262-13.282c8.966,0,17.924-2.52,26.888-3.78c0,0-0.246,8.078-1.35,17.062l-6.28,51.153
		L108.62,148.145z M122.68,35.182c-0.985,8.034-8.008,14.546-15.684,14.546s-13.098-6.512-12.111-14.546
		c0.985-8.034,8.008-14.548,15.684-14.548S123.666,27.148,122.68,35.182z"/>
</g>
</svg>
