<?xml version="1.0" encoding="utf-8"?>
<!-- Generator: Adobe Illustrator 15.1.0, SVG Export Plug-In . SVG Version: 6.00 Build 0)  -->
<!DOCTYPE svg PUBLIC "-//W3C//DTD SVG 1.1//EN" "http://www.w3.org/Graphics/SVG/1.1/DTD/svg11.dtd">
<svg version="1.1" id="Layer_1" xmlns="http://www.w3.org/2000/svg" xmlns:xlink="http://www.w3.org/1999/xlink" x="0px" y="0px"
	 width="200px" height="200px" viewBox="0 0 200 200" enable-background="new 0 0 200 200" xml:space="preserve">
<g>
	<path d="M104.818,63.068c6.907-2.793,10.849-6.247,11.325-11.676c0.548-6.351-5.269-10.415-16.047-10.415
		c-15.206,0-27.132,7.687-27.132,7.687c-0.1-6.98-1.021-13.09-0.173-20.066c0,0,15.283-7.797,32.276-7.797
		c23.653,0,37.918,11.766,36.709,30.46c-0.937,15.433-9.105,23.914-26.626,30.651l-14.539,5.587
		c-8.605,3.296-11.775,6.837-12.189,11.817c-0.604,6.844,4.847,11.292,13.552,11.292c8.765,0,14.427-4.072,14.427-4.072
		c0.067,5.536,0.906,10.669,0.249,16.204c0,0-7.777,4.481-20.765,4.481c-20.552,0-33.212-11.428-31.966-29.583
		c0.73-11.852,7.43-20.629,21.24-26.344L104.818,63.068z M105.106,156.919c-0.848,8.25-8.144,14.704-16.446,14.704
		c-8.306,0-14.235-6.454-13.392-14.704c0.842-8.221,8.08-14.588,16.382-14.588C99.954,142.331,105.946,148.698,105.106,156.919z"/>
</g>
</svg>
