<?xml version="1.0" encoding="utf-8"?>
<!-- Generator: Adobe Illustrator 15.1.0, SVG Export Plug-In . SVG Version: 6.00 Build 0)  -->
<!DOCTYPE svg PUBLIC "-//W3C//DTD SVG 1.1//EN" "http://www.w3.org/Graphics/SVG/1.1/DTD/svg11.dtd">
<svg version="1.1" id="Layer_1" xmlns="http://www.w3.org/2000/svg" xmlns:xlink="http://www.w3.org/1999/xlink" x="0px" y="0px"
	 width="200px" height="200px" viewBox="0 0 200 200" enable-background="new 0 0 200 200" xml:space="preserve">
<g>
	<path fill="#081D23" d="M17.417,155.922c0.529,7.892,0.965,14.361,0.969,14.379c0.003,0.018,0.372,0.691,0.814,1.496
		c0,0,0,0,0.849,0.196c1.187,0.269,2.37-0.471,2.64-1.657c3.381-14.786,9.584-27.739,18.599-37.583
		c8.901-9.898,19.806-17.064,31.597-22.393c5.907-2.692,12.539-3.921,18.977-5.055c3.27-0.572,3.27-0.572,3.27-0.572
		c3.453-0.948,6.283,4.75,6.283,12.658v8.576c0,7.909,5.385,10.787,11.963,6.402l65.939-43.961c6.579-4.387,6.579-11.562,0-15.951
		l-65.939-43.961c-6.578-4.383-11.963-1.505-11.963,6.404V43.2c0,7.908-0.291,10.492-0.906,14.41
		c-1.011,6.434-10.028,5.602-24.817,10.917c-14.568,6.367-16.145,8.986-21.13,12.588c-5.279,3.82-13.16,11.416-18.612,18.233
		c-5.416,6.845-9.92,14.418-13.198,22.375C16.198,137.703,17.417,155.922,17.417,155.922z"/>
</g>
</svg>
