<?xml version="1.0" encoding="utf-8"?>
<!-- Generator: Adobe Illustrator 15.1.0, SVG Export Plug-In . SVG Version: 6.00 Build 0)  -->
<!DOCTYPE svg PUBLIC "-//W3C//DTD SVG 1.1//EN" "http://www.w3.org/Graphics/SVG/1.1/DTD/svg11.dtd">
<svg version="1.1" id="Layer_1" xmlns="http://www.w3.org/2000/svg" xmlns:xlink="http://www.w3.org/1999/xlink" x="0px" y="0px"
	 width="200px" height="200px" viewBox="0 0 200 200" enable-background="new 0 0 200 200" xml:space="preserve">
<g>
	<path fill="#081D23" d="M184.159,42.573c-0.529-7.891-0.965-14.361-0.969-14.379c-0.003-0.018-0.372-0.691-0.814-1.496
		c0,0,0,0-0.849-0.196c-1.187-0.269-2.37,0.47-2.64,1.657c-3.381,14.786-9.584,27.739-18.599,37.583
		c-8.901,9.899-19.806,17.064-31.597,22.393c-5.907,2.692-12.539,3.921-18.977,5.055c-3.27,0.572-3.27,0.572-3.27,0.572
		c-3.453,0.948-6.283-4.75-6.283-12.658v-8.577c0-7.909-5.385-10.787-11.963-6.402l-65.939,43.961
		c-6.579,4.387-6.579,11.562,0,15.951L88.2,169.998c6.578,4.383,11.963,1.505,11.963-6.404v-8.299c0-7.908,0.292-10.492,0.906-14.41
		c1.011-6.434,10.028-5.602,24.817-10.917c14.568-6.367,16.145-8.986,21.13-12.588c5.279-3.82,13.16-11.416,18.612-18.233
		c5.416-6.845,9.92-14.417,13.198-22.375C185.378,60.792,184.159,42.573,184.159,42.573z"/>
</g>
</svg>
